<mxfile host="app.diagrams.net" agent="Mozilla/5.0 (Windows NT 10.0; Win64; x64) AppleWebKit/537.36 (KHTML, like Gecko) Chrome/137.0.0.0 Safari/537.36 Edg/137.0.0.0" version="27.1.6" pages="2">
  <diagram name="第 1 页" id="NctciwUggFrYQhLrWsF7">
    <mxGraphModel dx="2062" dy="1596" grid="0" gridSize="10" guides="1" tooltips="1" connect="1" arrows="1" fold="1" page="1" pageScale="1" pageWidth="7866" pageHeight="7866" math="0" shadow="0">
      <root>
        <mxCell id="0" />
        <mxCell id="1" parent="0" />
        <mxCell id="bQRkWYj3XIJHMTB0Zft1-1" value="base" style="shape=process;whiteSpace=wrap;html=1;backgroundOutline=1;" vertex="1" parent="1">
          <mxGeometry x="835" y="610" width="120" height="60" as="geometry" />
        </mxCell>
        <mxCell id="bQRkWYj3XIJHMTB0Zft1-2" value="multi" style="shape=process;whiteSpace=wrap;html=1;backgroundOutline=1;" vertex="1" parent="1">
          <mxGeometry x="1901" y="1185" width="120" height="60" as="geometry" />
        </mxCell>
        <mxCell id="bQRkWYj3XIJHMTB0Zft1-3" value="differential equation&amp;amp;series" style="shape=process;whiteSpace=wrap;html=1;backgroundOutline=1;" vertex="1" parent="1">
          <mxGeometry x="3211" y="1871" width="120" height="60" as="geometry" />
        </mxCell>
        <mxCell id="bQRkWYj3XIJHMTB0Zft1-6" value="Limit&amp;continuity" style="text;whiteSpace=wrap;html=1;" vertex="1" parent="1">
          <mxGeometry x="553" y="579" width="112" height="36" as="geometry" />
        </mxCell>
        <mxCell id="bQRkWYj3XIJHMTB0Zft1-7" value="differential" style="text;whiteSpace=wrap;html=1;fontColor=#6666FF;" vertex="1" parent="1">
          <mxGeometry x="1096" y="517" width="83" height="36" as="geometry" />
        </mxCell>
        <mxCell id="bQRkWYj3XIJHMTB0Zft1-8" value="integral" style="text;whiteSpace=wrap;html=1;fontColor=#FFB366;" vertex="1" parent="1">
          <mxGeometry x="1110" y="753" width="67" height="36" as="geometry" />
        </mxCell>
        <mxCell id="bQRkWYj3XIJHMTB0Zft1-9" value="differential" style="text;whiteSpace=wrap;html=1;fontColor=#6666FF;" vertex="1" parent="1">
          <mxGeometry x="1585" y="1055" width="83" height="36" as="geometry" />
        </mxCell>
        <mxCell id="bQRkWYj3XIJHMTB0Zft1-10" value="&lt;font style=&quot;color: rgb(255, 217, 102);&quot;&gt;Line&lt;/font&gt;&lt;font style=&quot;color: rgb(153, 153, 153);&quot;&gt;/&lt;/font&gt;&lt;font style=&quot;color: rgb(153, 153, 255);&quot;&gt;Surface&lt;/font&gt; integral" style="text;whiteSpace=wrap;html=1;fontColor=#FFB366;" vertex="1" parent="1">
          <mxGeometry x="2110" y="1284" width="67" height="36" as="geometry" />
        </mxCell>
        <mxCell id="bQRkWYj3XIJHMTB0Zft1-11" value="&lt;font style=&quot;color: rgb(153, 255, 255);&quot;&gt;double&lt;/font&gt;&lt;font style=&quot;color: rgb(153, 153, 153);&quot;&gt;/&lt;/font&gt;&lt;font&gt;&lt;font style=&quot;color: rgb(102, 255, 102);&quot;&gt;triple&lt;/font&gt; &lt;/font&gt;integral" style="text;whiteSpace=wrap;html=1;fontColor=#FFB366;" vertex="1" parent="1">
          <mxGeometry x="2008" y="1073" width="67" height="36" as="geometry" />
        </mxCell>
        <mxCell id="bQRkWYj3XIJHMTB0Zft1-12" value="&lt;font style=&quot;color: rgb(153, 255, 255);&quot;&gt;double&lt;/font&gt;" style="text;whiteSpace=wrap;html=1;fontColor=#FFB366;" vertex="1" parent="1">
          <mxGeometry x="2029" y="979" width="67" height="36" as="geometry" />
        </mxCell>
        <mxCell id="bQRkWYj3XIJHMTB0Zft1-13" value="&lt;font&gt;&lt;font style=&quot;color: rgb(102, 255, 102);&quot;&gt;triple&lt;/font&gt;&lt;/font&gt;" style="text;whiteSpace=wrap;html=1;fontColor=#FFB366;" vertex="1" parent="1">
          <mxGeometry x="2218" y="1078" width="67" height="36" as="geometry" />
        </mxCell>
        <mxCell id="bQRkWYj3XIJHMTB0Zft1-14" value="直角" style="text;html=1;align=center;verticalAlign=middle;resizable=0;points=[];autosize=1;strokeColor=none;fillColor=none;fontColor=#999999;" vertex="1" parent="1">
          <mxGeometry x="2131" y="1136" width="42" height="26" as="geometry" />
        </mxCell>
        <mxCell id="bQRkWYj3XIJHMTB0Zft1-15" value="柱坐标" style="text;html=1;align=center;verticalAlign=middle;resizable=0;points=[];autosize=1;strokeColor=none;fillColor=none;fontColor=#999999;" vertex="1" parent="1">
          <mxGeometry x="2201" y="1136" width="54" height="26" as="geometry" />
        </mxCell>
        <mxCell id="bQRkWYj3XIJHMTB0Zft1-16" value="球面坐标" style="text;html=1;align=center;verticalAlign=middle;resizable=0;points=[];autosize=1;strokeColor=none;fillColor=none;fontColor=#999999;" vertex="1" parent="1">
          <mxGeometry x="2278" y="1138" width="66" height="26" as="geometry" />
        </mxCell>
        <mxCell id="bQRkWYj3XIJHMTB0Zft1-17" value="concept" style="text;html=1;align=center;verticalAlign=middle;resizable=0;points=[];autosize=1;strokeColor=none;fillColor=none;fontColor=#999999;" vertex="1" parent="1">
          <mxGeometry x="2220" y="1030" width="60" height="26" as="geometry" />
        </mxCell>
        <mxCell id="bQRkWYj3XIJHMTB0Zft1-18" value="&lt;font style=&quot;color: rgb(255, 217, 102);&quot;&gt;Line&lt;/font&gt;" style="text;whiteSpace=wrap;html=1;fontColor=#FFB366;" vertex="1" parent="1">
          <mxGeometry x="1981" y="1341" width="67" height="36" as="geometry" />
        </mxCell>
        <mxCell id="bQRkWYj3XIJHMTB0Zft1-19" value="&lt;font style=&quot;color: rgb(153, 153, 255);&quot;&gt;Surface&lt;/font&gt;" style="text;whiteSpace=wrap;html=1;fontColor=#FFB366;" vertex="1" parent="1">
          <mxGeometry x="2188" y="1341" width="67" height="36" as="geometry" />
        </mxCell>
        <mxCell id="bQRkWYj3XIJHMTB0Zft1-20" value="Ⅰ" style="text;html=1;align=center;verticalAlign=middle;resizable=0;points=[];autosize=1;strokeColor=none;fillColor=none;fontColor=#999999;" vertex="1" parent="1">
          <mxGeometry x="1907" y="1377" width="30" height="26" as="geometry" />
        </mxCell>
        <mxCell id="bQRkWYj3XIJHMTB0Zft1-21" value="Ⅱ" style="text;html=1;align=center;verticalAlign=middle;resizable=0;points=[];autosize=1;strokeColor=none;fillColor=none;fontColor=#999999;" vertex="1" parent="1">
          <mxGeometry x="1907" y="1460" width="30" height="26" as="geometry" />
        </mxCell>
      </root>
    </mxGraphModel>
  </diagram>
  <diagram id="R_XeGd9AmmEwmu2P1GdA" name="triple_黎曼">
    <mxGraphModel dx="1151" dy="684" grid="0" gridSize="10" guides="1" tooltips="1" connect="1" arrows="1" fold="1" page="1" pageScale="1" pageWidth="7866" pageHeight="7866" math="1" shadow="0">
      <root>
        <mxCell id="0" />
        <mxCell id="1" parent="0" />
        <mxCell id="UcWgBoh-ajAfSAYZGSIt-32" value="" style="group;collapsible=1;" vertex="1" connectable="0" parent="1" collapsed="1">
          <mxGeometry x="432" y="476" width="50" height="44" as="geometry">
            <mxRectangle x="432" y="476" width="1375" height="1024" as="alternateBounds" />
          </mxGeometry>
        </mxCell>
        <mxCell id="UcWgBoh-ajAfSAYZGSIt-4" value="核心思想: “分割、近似、求和、取极限”" style="text;whiteSpace=wrap;html=1;" vertex="1" parent="UcWgBoh-ajAfSAYZGSIt-32">
          <mxGeometry x="77" y="61" width="235" height="36" as="geometry" />
        </mxCell>
        <mxCell id="UcWgBoh-ajAfSAYZGSIt-6" value="$$\Omega = \{(x, y, z) | a \le x \le b, c \le y \le d, e \le z \le f\}$$" style="text;whiteSpace=wrap;html=1;" vertex="1" parent="UcWgBoh-ajAfSAYZGSIt-32">
          <mxGeometry x="39" y="411" width="332" height="61" as="geometry" />
        </mxCell>
        <mxCell id="UcWgBoh-ajAfSAYZGSIt-7" style="rounded=0;orthogonalLoop=1;jettySize=auto;html=1;exitX=0;exitY=0;exitDx=0;exitDy=0;" edge="1" parent="UcWgBoh-ajAfSAYZGSIt-32" source="UcWgBoh-ajAfSAYZGSIt-6">
          <mxGeometry relative="1" as="geometry">
            <mxPoint x="91" y="350" as="targetPoint" />
          </mxGeometry>
        </mxCell>
        <mxCell id="UcWgBoh-ajAfSAYZGSIt-8" value="\( \Omega \) 是一个长方体" style="text;whiteSpace=wrap;html=1;" vertex="1" parent="UcWgBoh-ajAfSAYZGSIt-32">
          <mxGeometry x="39" y="462" width="167" height="36" as="geometry" />
        </mxCell>
        <mxCell id="UcWgBoh-ajAfSAYZGSIt-9" value="由六个平面确定：\( x=a, x=b, y=c, y=d, z=e, z=f \)" style="text;whiteSpace=wrap;html=1;" vertex="1" parent="UcWgBoh-ajAfSAYZGSIt-32">
          <mxGeometry x="53" y="493" width="293" height="36" as="geometry" />
        </mxCell>
        <mxCell id="UcWgBoh-ajAfSAYZGSIt-10" value="分割 (Partitioning)" style="text;whiteSpace=wrap;html=1;" vertex="1" parent="UcWgBoh-ajAfSAYZGSIt-32">
          <mxGeometry x="353" y="419" width="123" height="36" as="geometry" />
        </mxCell>
        <mxCell id="UcWgBoh-ajAfSAYZGSIt-11" value="将整个大的长方体 \( \Omega \) 切割成无数个非常非常小的长方体" style="text;whiteSpace=wrap;html=1;" vertex="1" parent="UcWgBoh-ajAfSAYZGSIt-32">
          <mxGeometry x="365" y="452" width="375" height="36" as="geometry" />
        </mxCell>
        <mxCell id="UcWgBoh-ajAfSAYZGSIt-12" value="x 轴上的区间 \( [a, b] \) 等分成 \( n \) 份，每份的宽度是 \( \Delta x = \frac{b-a}{n} \)" style="text;whiteSpace=wrap;html=1;" vertex="1" parent="UcWgBoh-ajAfSAYZGSIt-32">
          <mxGeometry x="382" y="488" width="461" height="36" as="geometry" />
        </mxCell>
        <mxCell id="UcWgBoh-ajAfSAYZGSIt-13" value="y 轴上的区间 \( [c, d] \) 等分成 \( n \) 份，每份的宽度是 \( \Delta y = \frac{d-c}{n} \)" style="text;whiteSpace=wrap;html=1;" vertex="1" parent="UcWgBoh-ajAfSAYZGSIt-32">
          <mxGeometry x="379" y="528" width="460" height="36" as="geometry" />
        </mxCell>
        <mxCell id="UcWgBoh-ajAfSAYZGSIt-14" value="z 轴上的区间 \( [e, f] \) 等分成 \( n \) 份，每份的宽度是 \( \Delta z = \frac{f-e}{n} \)" style="text;whiteSpace=wrap;html=1;" vertex="1" parent="UcWgBoh-ajAfSAYZGSIt-32">
          <mxGeometry x="382" y="571" width="454" height="36" as="geometry" />
        </mxCell>
        <mxCell id="UcWgBoh-ajAfSAYZGSIt-15" value="整个大长方体 \( \Omega \) 就被分成了 \( n \times n \times n = n^3 \) 个完全相同的小长方体" style="text;whiteSpace=wrap;html=1;" vertex="1" parent="UcWgBoh-ajAfSAYZGSIt-32">
          <mxGeometry x="365" y="621" width="508" height="36" as="geometry" />
        </mxCell>
        <mxCell id="UcWgBoh-ajAfSAYZGSIt-18" style="rounded=0;orthogonalLoop=1;jettySize=auto;html=1;exitX=0;exitY=0;exitDx=0;exitDy=0;" edge="1" parent="UcWgBoh-ajAfSAYZGSIt-32" source="UcWgBoh-ajAfSAYZGSIt-16">
          <mxGeometry relative="1" as="geometry">
            <mxPoint x="598.2239837646484" y="360.1165313720703" as="targetPoint" />
          </mxGeometry>
        </mxCell>
        <mxCell id="UcWgBoh-ajAfSAYZGSIt-16" value="近似 (Approximation)" style="text;whiteSpace=wrap;html=1;" vertex="1" parent="UcWgBoh-ajAfSAYZGSIt-32">
          <mxGeometry x="793" y="426.5" width="140" height="30" as="geometry" />
        </mxCell>
        <mxCell id="UcWgBoh-ajAfSAYZGSIt-17" value="" style="endArrow=none;html=1;rounded=0;" edge="1" parent="UcWgBoh-ajAfSAYZGSIt-32">
          <mxGeometry width="50" height="50" relative="1" as="geometry">
            <mxPoint x="536" y="357" as="sourcePoint" />
            <mxPoint x="665" y="357" as="targetPoint" />
          </mxGeometry>
        </mxCell>
        <mxCell id="UcWgBoh-ajAfSAYZGSIt-19" value="小长方体的体积：每个小长方体的体积都相同，我们称之为 \( \Delta V \)。&lt;br/&gt;&lt;br&gt;&lt;br/&gt;&lt;br&gt;$$&lt;br/&gt;&lt;br&gt;&lt;br/&gt;&lt;br&gt;\Delta V = \Delta x \cdot \Delta y \cdot \Delta z = \frac{b-a}{n} \cdot \frac{d-c}{n} \cdot \frac{f-e}{n}&lt;br/&gt;&lt;br&gt;&lt;br/&gt;&lt;br&gt;$$" style="text;whiteSpace=wrap;html=1;" vertex="1" parent="UcWgBoh-ajAfSAYZGSIt-32">
          <mxGeometry x="806" y="470" width="550" height="123" as="geometry" />
        </mxCell>
        <mxCell id="UcWgBoh-ajAfSAYZGSIt-20" value="* **在每个小长方体中取一个样本点**：我们不能直接计算一个不规则物体的“总质量”（如果把 \( g(x,y,z) \) 看作密度的话），但可以近似计算。我们在每个小长方体中选一个代表点（样本点），并假设整个小长方体的密度都等于这个样本点上的密度。&lt;br/&gt;&lt;br&gt;&lt;br/&gt;&lt;br&gt;* 公式中选取的样本点是：&lt;br/&gt;&lt;br&gt;&lt;br/&gt;&lt;br&gt;$$(x_i, y_j, z_k) = \left(a + \frac{b-a}{n}i, c + \frac{d-c}{n}j, e + \frac{f-e}{n}k\right)$$" style="text;whiteSpace=wrap;html=1;" vertex="1" parent="UcWgBoh-ajAfSAYZGSIt-32">
          <mxGeometry x="806" y="609" width="550" height="199" as="geometry" />
        </mxCell>
        <mxCell id="UcWgBoh-ajAfSAYZGSIt-21" value="这代表了第 \( (i, j, k) \) 个小长方体的一个顶点（具体来说是离原点最远的那个顶点）" style="text;whiteSpace=wrap;html=1;" vertex="1" parent="UcWgBoh-ajAfSAYZGSIt-32">
          <mxGeometry x="839" y="827" width="472" height="36" as="geometry" />
        </mxCell>
        <mxCell id="UcWgBoh-ajAfSAYZGSIt-22" value="**计算每个小长方体的“质量”**：我们将该点的函数值（可以理解为密度）乘以这个小长方体的体积，得到这个小块的近似“质量”。&#xa;&#xa;$$&#xa;&#xa;\text{小块的近似质量} \approx g(x_i, y_j, z_k) \cdot \Delta V&#xa;&#xa;$$" style="text;whiteSpace=wrap;html=1;" vertex="1" parent="UcWgBoh-ajAfSAYZGSIt-32">
          <mxGeometry x="800" y="887" width="550" height="137" as="geometry" />
        </mxCell>
        <mxCell id="UcWgBoh-ajAfSAYZGSIt-23" value="" style="endArrow=none;html=1;rounded=0;" edge="1" parent="UcWgBoh-ajAfSAYZGSIt-32">
          <mxGeometry width="50" height="50" relative="1" as="geometry">
            <mxPoint x="278" y="358" as="sourcePoint" />
            <mxPoint x="521" y="358" as="targetPoint" />
          </mxGeometry>
        </mxCell>
        <mxCell id="UcWgBoh-ajAfSAYZGSIt-24" value="求和 (Summation)" style="text;whiteSpace=wrap;html=1;" vertex="1" parent="UcWgBoh-ajAfSAYZGSIt-32">
          <mxGeometry x="800" y="210" width="124" height="36" as="geometry" />
        </mxCell>
        <mxCell id="UcWgBoh-ajAfSAYZGSIt-25" value="**三重求和符号 \( \sum_{i=1}^{n} \sum_{j=1}^{n} \sum_{k=1}^{n} \)**：这个符号的意思是，我们把所有 \( n^3 \) 个小长方体的近似“质量”全部加起来。&#xa;&#xa;* 这个总和就是对整个大长方体 \( \Omega \) 的“总质量”的一个近似值" style="text;whiteSpace=wrap;html=1;" vertex="1" parent="UcWgBoh-ajAfSAYZGSIt-32">
          <mxGeometry x="825" y="243" width="550" height="80" as="geometry" />
        </mxCell>
        <mxCell id="UcWgBoh-ajAfSAYZGSIt-26" value="取极限 (Taking the Limit)" style="text;whiteSpace=wrap;html=1;" vertex="1" parent="UcWgBoh-ajAfSAYZGSIt-32">
          <mxGeometry x="800" width="159" height="36" as="geometry" />
        </mxCell>
        <mxCell id="UcWgBoh-ajAfSAYZGSIt-27" value="* **\( \lim_{n \to \infty} \)**：这是最关键的一步。当 \( n \) 趋向于无穷大时，意味着我们把长方体分割得越来越细，每个小长方体的体积 \( \Delta V \) 趋向于零。" style="text;whiteSpace=wrap;html=1;" vertex="1" parent="UcWgBoh-ajAfSAYZGSIt-32">
          <mxGeometry x="822" y="41" width="550" height="51" as="geometry" />
        </mxCell>
        <mxCell id="UcWgBoh-ajAfSAYZGSIt-28" value="\( \iiint_{\Omega} g(x, y, z) \,dv \) 的物理意义之一:&amp;nbsp; 计算物体 \( \Omega \) 的**总质量**&lt;div&gt;&lt;span style=&quot;white-space: pre;&quot;&gt;&#x9;&lt;/span&gt;其中 \( g(x, y, z) \) 是在点 \( (x, y, z) \) 处的**密度**函数。&lt;/div&gt;" style="text;whiteSpace=wrap;html=1;" vertex="1" parent="UcWgBoh-ajAfSAYZGSIt-32">
          <mxGeometry y="563.5" width="550" height="51" as="geometry" />
        </mxCell>
        <mxCell id="UcWgBoh-ajAfSAYZGSIt-29" value="" style="endArrow=none;dashed=1;html=1;rounded=0;" edge="1" parent="UcWgBoh-ajAfSAYZGSIt-32">
          <mxGeometry width="50" height="50" relative="1" as="geometry">
            <mxPoint x="214" y="358" as="sourcePoint" />
            <mxPoint x="271" y="358" as="targetPoint" />
          </mxGeometry>
        </mxCell>
        <mxCell id="UcWgBoh-ajAfSAYZGSIt-30" value="" style="endArrow=none;dashed=1;html=1;rounded=0;" edge="1" parent="UcWgBoh-ajAfSAYZGSIt-32">
          <mxGeometry width="50" height="50" relative="1" as="geometry">
            <mxPoint x="179" y="358" as="sourcePoint" />
            <mxPoint x="206" y="358" as="targetPoint" />
          </mxGeometry>
        </mxCell>
        <mxCell id="UcWgBoh-ajAfSAYZGSIt-3" value="**黎曼和的极限**（Limit of a Riemann Sum）的形式" style="text;whiteSpace=wrap;html=1;" vertex="1" parent="1">
          <mxGeometry x="503" y="481" width="497" height="36" as="geometry" />
        </mxCell>
        <mxCell id="UcWgBoh-ajAfSAYZGSIt-5" value="$$\iiint_{\Omega} g(x, y, z) \,dv = \lim_{n \to \infty} \sum_{i=1}^{n} \sum_{j=1}^{n} \sum_{k=1}^{n} g\left(a + \frac{b-a}{n}i, c + \frac{d-c}{n}j, e + \frac{f-e}{n}k\right) \cdot \frac{b-a}{n} \cdot \frac{d-c}{n} \cdot \frac{f-e}{n}$$" style="text;whiteSpace=wrap;html=1;" vertex="1" parent="1">
          <mxGeometry x="493" y="767" width="550" height="85" as="geometry" />
        </mxCell>
        <mxCell id="UcWgBoh-ajAfSAYZGSIt-33" value="好的，我们来详细解释一下图片中提到的三重积分的两种对称性：**普通对称性**（奇偶对称性）和**轮换对称性**。这两种方法都是简化三重积分计算的强大工具。&#xa;&#xa;-----&#xa;&#xa;### 1\. 普通对称性 (Odd-Even Symmetry)&#xa;&#xa;这种对称性利用了**积分区域的几何对称性**和**被积函数的奇偶性**相结合的特点。&#xa;&#xa;#### **结论的含义**&#xa;&#xa;  * **前提条件**:&#xa;&#xa;    1.  **积分区域 ( \\Omega )** 关于某个坐标平面对称。图片中的例子是关于 ( xOz ) 平面（也就是 ( y=0 ) 平面）对称。这意味着，如果点 ( (x, y, z) ) 在区域 ( \\Omega ) 内，那么它关于 ( xOz ) 平面的对称点 ( (x, -y, z) ) 也必定在 ( \\Omega ) 内。&#xa;    2.  **被积函数 ( f(x,y,z) )** 具有特定的奇偶性。具体来说，是关于那个被对称的变量（在这里是 ( y )）的奇偶性。&#xa;&#xa;  * **结论**:&#xa;&#xa;    1.  如果 ( f(x, y, z) ) 关于 ( y ) 是**偶函数**，即 ( f(x, y, z) = f(x, -y, z) )，那么原积分等于对称区域一半 ( \\Omega\_1 ) 上积分的两倍。&#xa;        $$\iiint_{\Omega} f(x,y,z) \,dv = 2 \iiint_{\Omega_1} f(x,y,z) \,dv$$&#xa;        其中 ( \\Omega\_1 ) 是 ( \\Omega ) 在 ( xOz ) 平面一侧的部分（例如 ( y \\ge 0 ) 的部分）。&#xa;&#xa;    2.  如果 ( f(x, y, z) ) 关于 ( y ) 是**奇函数**，即 ( f(x, y, z) = -f(x, -y, z) )，那么原积分直接等于 **0**。&#xa;        $$\iiint_{\Omega} f(x,y,z) \,dv = 0$$&#xa;&#xa;#### **由来与推导 (为什么？)**&#xa;&#xa;这个结论的本质是**对称区域上的积分可以相互抵消或叠加**。&#xa;&#xa;我们可以把整个区域 ( \\Omega ) 拆分成两半：&#xa;&#xa;  * ( \\Omega\_1 ): ( y \\ge 0 ) 的部分&#xa;  * ( \\Omega\_2 ): ( y \\le 0 ) 的部分&#xa;&#xa;于是，原积分可以写成：&#xa;$$\iiint_{\Omega} f \,dv = \iiint_{\Omega_1} f(x,y,z) \,dv + \iiint_{\Omega_2} f(x,y,z) \,dv$$&#xa;&#xa;现在我们来处理右边第二个积分 ( \\iiint\_{\\Omega\_2} f(x,y,z) ,dv )。我们做一个变量代换，令 ( y = -t )。当 ( (x,y,z) ) 取遍 ( \\Omega\_2 ) 时，( (x,t,z) ) 正好取遍 ( \\Omega\_1 )。这个变换的雅可比行列式的绝对值是 ( |J| = 1 )。所以：&#xa;$$\iiint_{\Omega_2} f(x,y,z) \,dv = \iiint_{\Omega_1} f(x,-t,z) \,dv$$&#xa;&#xa;现在，我们把这个结果代回原式：&#xa;$$\iiint_{\Omega} f \,dv = \iiint_{\Omega_1} f(x,y,z) \,dv + \iiint_{\Omega_1} f(x,-t,z) \,dv$$&#xa;(为了方便，我们把第二个积分中的哑变量 ( t ) 换回 ( y ))&#xa;$$\iiint_{\Omega} f \,dv = \iiint_{\Omega_1} [f(x,y,z) + f(x,-y,z)] \,dv$$&#xa;&#xa;此时，被积函数的奇偶性就派上用场了：&#xa;&#xa;  * **如果 ( f ) 是关于 ( y ) 的偶函数**：( f(x,-y,z) = f(x,y,z) )。那么中括号里的部分变成 ( f(x,y,z) + f(x,y,z) = 2f(x,y,z) )。积分结果就是 ( 2 \\iiint\_{\\Omega\_1} f(x,y,z) ,dv )。&#xa;  * **如果 ( f ) 是关于 ( y ) 的奇函数**：( f(x,-y,z) = -f(x,y,z) )。那么中括号里的部分变成 ( f(x,y,z) - f(x,y,z) = 0 )。积分结果自然就是 **0**。&#xa;&#xa;**直观类比：**&#xa;可以把它想象成一维定积分。计算函数 ( g(x) ) 在对称区间 ( [-a, a] ) 上的积分 ( \\int\_{-a}^{a} g(x) ,dx )。&#xa;&#xa;  * 如果 ( g(x) ) 是偶函数（如 ( \\cos(x) )，图像关于y轴对称），左右两边的面积完全相同，总面积等于右边面积的两倍。&#xa;  * 如果 ( g(x) ) 是奇函数（如 ( \\sin(x) )，图像关于原点对称），左右两边的面积大小相等、符号相反，正好完全抵消，总面积为零。&#xa;&#xa;-----&#xa;&#xa;### 2\. 轮换对称性 (Permutation/Cyclic Symmetry)&#xa;&#xa;这种对称性利用了**积分区域在变量互换下的不变性**。&#xa;&#xa;#### **结论的含义**&#xa;&#xa;  * **前提条件**:&#xa;&#xa;    1.  **积分区域 ( \\Omega )** 具有轮换对称性。意思是，如果在区域表达式中，将两个或多个变量互换位置，区域的方程（或不等式）保持不变。&#xa;    2.  图片中给出的例子是：若把 ( x ) 与 ( y ) 对调，区域 ( \\Omega ) 不变。一个完美的例子就是球体 ( \\Omega = {(x,y,z) | x^2+y^2+z^2 \\le R^2} )，因为 ( x^2+y^2+z^2 = y^2+x^2+z^2 )，交换 ( x, y ) 不改变区域。&#xa;&#xa;  * **结论**:&#xa;    $$\iiint_{\Omega} f(x,y,z) \,dxdydz = \iiint_{\Omega} f(y,x,z) \,dxdydz$$&#xa;    更进一步，如果区域关于 ( x, y, z ) 三个变量都是轮换对称的（比如球体），那么会有更强的结论，例如：&#xa;    $$\iiint_{\Omega} f(x) \,dxdydz = \iiint_{\Omega} f(y) \,dxdydz = \iiint_{\Omega} f(z) \,dxdydz$$&#xa;&#xa;#### **由来与推导 (为什么？)**&#xa;&#xa;这个结论来自于**积分变量只是一个“哑元”**（dummy variable）的思想，只要积分区域和被积函数的形式保持一致，积分值就相同。&#xa;&#xa;我们来证明 ( \\iiint\_{\\Omega} f(x) ,dxdydz = \\iiint\_{\\Omega} f(y) ,dxdydz )。&#xa;我们从右边的积分出发：&#xa;$$I = \iiint_{\Omega} f(y) \,dxdydz$$&#xa;做一个变量代换，我们交换 ( x ) 和 ( y ) 的角色：令 ( u=y, v=x, w=z )。&#xa;&#xa;  * **新的积分区域**: 一个点 ( (x,y,z) ) 在 ( \\Omega ) 内。那么新的变量 ( (u,v,w) ) 对应的点是 ( (y,x,z) )。由于我们已经假设了 ( \\Omega ) 关于 ( x,y ) 的交换是对称的，所以点 ( (y,x,z) ) 也必然在 ( \\Omega ) 内。因此，新的积分区域 ( \\Omega&#39; ) 和原来的 ( \\Omega ) 是完全一样的。&#xa;  * **雅可比行列式**: ( |J|=1 )。&#xa;  * **代换**:&#xa;    $$I = \iiint_{\Omega&#39;} f(u) \,|J|\,dudvdw = \iiint_{\Omega} f(u) \,dudvdw$$&#xa;    现在，我们看到这个积分中，( u,v,w ) 只是代表积分变量的符号，我们可以把它们重新命名为 ( x,y,z )，这不会改变积分的值：&#xa;    $$I = \iiint_{\Omega} f(x) \,dxdydz$$&#xa;    这就证明了 ( \\iiint\_{\\Omega} f(y) ,dxdydz = \\iiint\_{\\Omega} f(x) ,dxdydz )。&#xa;&#xa;**应用实例：**&#xa;假设要计算 ( I = \\iiint\_{\\Omega} (x^2 + 3y^2) ,dv )，其中 ( \\Omega ) 是单位球 ( x^2+y^2+z^2 \\le 1 )。&#xa;直接计算会很复杂。但球体 ( \\Omega ) 关于 ( x, y, z ) 具有完全的轮换对称性。&#xa;因此，我们可以得出结论：&#xa;$$\iiint_{\Omega} x^2 \,dv = \iiint_{\Omega} y^2 \,dv = \iiint_{\Omega} z^2 \,dv$$&#xa;我们把原积分拆开：&#xa;$$I = \iiint_{\Omega} x^2 \,dv + 3\iiint_{\Omega} y^2 \,dv$$&#xa;利用轮换对称性，( \\iiint\_{\\Omega} y^2 ,dv = \\iiint\_{\\Omega} x^2 ,dv )，所以：&#xa;$$I = \iiint_{\Omega} x^2 \,dv + 3\iiint_{\Omega} x^2 \,dv = 4 \iiint_{\Omega} x^2 \,dv$$&#xa;这样问题就转化成了计算一个更简单的积分的4倍，大大简化了过程。" style="text;whiteSpace=wrap;html=1;" vertex="1" parent="1">
          <mxGeometry x="2863" y="240" width="550" height="1778" as="geometry" />
        </mxCell>
        <mxCell id="UcWgBoh-ajAfSAYZGSIt-34" value="Symmetry" style="text;html=1;align=center;verticalAlign=middle;resizable=0;points=[];autosize=1;strokeColor=none;fillColor=none;" vertex="1" parent="1">
          <mxGeometry x="2047" y="234" width="72" height="26" as="geometry" />
        </mxCell>
      </root>
    </mxGraphModel>
  </diagram>
</mxfile>
